# xmcd
#
# Track frame offsets:
#	182
#	11515
#	27762
#	36745
#	50310
#	62445
#	77617
#	95652
#	113140
#	128087
#	138595
#	151945
#	162842
#	176392
#	188197
#	198012
#
# Disc length: 2818 seconds
# Revision: 1
# Processed by: cddbd v1.5.2PL0 Copyright (c) Steve Scherf et al.
# Submitted via: dBpowerAMP V12.0
#
DISCID=c70b0010
DTITLE=Carmen McRae - Carmen McRae ~ My Greatest Songs [dBP-LITE02-1-FLAC@]
DYEAR=1992
DGENRE=Jazz
TTITLE0=Nice Work If You Can Get It
TTITLE1=Lush Life
TTITLE2=Yardbird Suite
TTITLE3=Isn't It Romantic
TTITLE4=Love Is Here To Stay
TTITLE5=His Eye Is On The Sparrow
TTITLE6=Dream Of Life
TTITLE7=Baltimore Oriole
TTITLE8=Good Morning Heartache
TTITLE9=Perdido
TTITLE10=Summertime
TTITLE11=All The Things You Are
TTITLE12=I Remember Clifford
TTITLE13=You Took Advantage Of Me
TTITLE14=Exactly Like You
TTITLE15=Skyliner
EXTD=
EXTT0=
EXTT1=
EXTT2=
EXTT3=
EXTT4=
EXTT5=
EXTT6=
EXTT7=
EXTT8=
EXTT9=
EXTT10=
EXTT11=
EXTT12=
EXTT13=
EXTT14=
EXTT15=
PLAYORDER=
